# xmcd
#
# Track frame offsets: 
#        150
#        14309
#        29950
#        44853
#        63525
#        74644
#        90859
#        102621
#        118988
#        133242
#        148413
#        159709
#
# Disc length: 2257 seconds
#
# Revision: 0
# Processed by: cddbd v1.5.2PL0 Copyright (c) Steve Scherf et al.
# Submitted via: ExactAudioCopy v0.99pb4
#
DISCID=c808cf0c
DTITLE=Frank Nelson - Nothing So Fast as The Passing of Time
DYEAR=2007
DGENRE=Country
TTITLE0=Nothing So Fast as The Passing of Time
TTITLE1=Middle of Nowhere
TTITLE2=Over The Hill
TTITLE3=I'm Thinking Tonight of My Blue Eyes
TTITLE4=Drunk Again
TTITLE5=What Will I Tell The Children When You're Gone
TTITLE6=Mama's Got a Squeeze Box
TTITLE7=A Picture of Me Without You
TTITLE8=I Miss The Craic in Cricklewood
TTITLE9=Foolish Feelings
TTITLE10=Amanda
TTITLE11=I've Enjoyed as Much of This as I Can Stand
EXTD=
EXTT0=
EXTT1=
EXTT2=
EXTT3=
EXTT4=
EXTT5=
EXTT6=
EXTT7=
EXTT8=
EXTT9=
EXTT10=
EXTT11=
PLAYORDER=
